<!DOCTYPE svg PUBLIC "-//W3C//DTD SVG 20010904//EN"
 "http://www.w3.org/TR/2001/REC-SVG-20010904/DTD/svg10.dtd">
<svg version="1.0" xmlns="http://www.w3.org/2000/svg"
 width="812pt" height="150pt" viewBox="0 0 812 150"
 preserveAspectRatio="xMidYMid meet">

    <g transform="translate(0,150) scale(0.1,-0.1)" stroke="none">
        <path 
            d="M0 1000 l0 -1000 2887 2 2887 3 228 850 c126 468 246 916 267 998 l39 147 -3154 0 -3154 0 0 -1000z"
            [@gradientTransition]="{ value: animationState, params: { oldColor: previousGradient?.baseColor, newColor: gradient.baseColor } }"
        />
        <path 
            d="M6710 1963 c-6 -21 -127 -471 -269 -1001 l-258 -962 325 2 325 3 253 945 c139 520 260 969 268 998 l15 52 -324 0 -324 0 -11 -37z"
            [@gradientTransition]="{ value: animationState, params: { oldColor: previousGradient?.secondaryColor, newColor: gradient.secondaryColor } }"
        />
        <path 
            d="M7531 1012 c-145 -543 -266 -993 -269 -1000 -3 -10 28 -12 149 -10 l154 3 267 995 c147 547 267 996 268 998 0 1 -69 2 -152 2 l-153 0 -264 -988z"
            [@gradientTransition]="{ value: animationState, params: { oldColor: previousGradient?.tertiaryColor, newColor: gradient.tertiaryColor } }"
        />
    </g>
</svg>
